<svg xmlns="http://www.w3.org/2000/svg" xmlns:xlink="http://www.w3.org/1999/xlink" width="300" zoomAndPan="magnify" viewBox="0 0 224.87999 112.499997" height="150" preserveAspectRatio="xMidYMid meet" version="1.0"><defs><clipPath id="4a669711a5"><path d="M 166 1.746094 L 208.84375 1.746094 L 208.84375 49 L 166 49 Z M 166 1.746094 " clip-rule="nonzero"/></clipPath><clipPath id="1d7e831188"><path d="M 16.199219 51 L 54 51 L 54 57 L 16.199219 57 Z M 16.199219 51 " clip-rule="nonzero"/></clipPath><clipPath id="5e6406141d"><path d="M 84 103 L 132 103 L 132 110.011719 L 84 110.011719 Z M 84 103 " clip-rule="nonzero"/></clipPath></defs><path fill="#241c00" d="M 39.070312 44.367188 L 187.894531 27.734375 L 175.355469 87.652344 L 106.152344 92.277344 L 94.902344 71.105469 L 49.550781 76.054688 Z M 39.070312 44.367188 " fill-opacity="1" fill-rule="nonzero"/><path fill="#f93646" d="M 58.019531 67.515625 C 58.015625 67.484375 58.230469 63.734375 58.5 59.179688 C 58.765625 54.625 58.984375 50.867188 58.976562 50.832031 C 58.972656 50.796875 60.015625 50.644531 61.296875 50.496094 L 63.625 50.226562 L 63.597656 50.75 C 63.582031 51.035156 63.417969 53.863281 63.234375 57.035156 L 62.898438 62.796875 L 66.28125 62.441406 C 68.851562 62.171875 69.671875 62.125 69.6875 62.253906 C 69.703125 62.34375 69.613281 63.285156 69.496094 64.34375 L 69.277344 66.265625 L 63.652344 66.917969 C 60.554688 67.277344 58.023438 67.546875 58.019531 67.515625 Z M 73.046875 65.660156 C 73.066406 65.558594 73.292969 61.820312 73.546875 57.351562 C 73.800781 52.886719 74.042969 49.175781 74.089844 49.113281 C 74.132812 49.046875 75.179688 48.894531 76.417969 48.773438 L 78.667969 48.550781 L 78.175781 56.886719 L 77.6875 65.21875 L 75.347656 65.53125 C 73.5 65.773438 73.015625 65.800781 73.046875 65.660156 Z M 82.785156 64.59375 C 82.777344 64.539062 83.097656 60.746094 83.496094 56.164062 L 84.222656 47.835938 L 86.128906 47.613281 L 88.039062 47.394531 L 90.355469 52.503906 C 91.628906 55.316406 92.710938 57.59375 92.761719 57.570312 C 92.8125 57.546875 94.222656 54.976562 95.898438 51.859375 L 98.945312 46.195312 L 102.8125 45.671875 L 102.777344 45.988281 C 102.746094 46.285156 102.109375 62.257812 102.125 62.390625 C 102.128906 62.425781 101.117188 62.570312 99.875 62.714844 L 97.617188 62.976562 L 97.652344 62.589844 C 97.742188 61.519531 97.890625 56.707031 97.835938 56.585938 C 97.800781 56.511719 96.910156 58.011719 95.863281 59.925781 L 93.953125 63.402344 L 92.332031 63.589844 L 90.714844 63.777344 L 89.484375 61.054688 C 88.808594 59.558594 88.125 58.050781 87.96875 57.707031 C 87.8125 57.359375 87.667969 57.097656 87.644531 57.121094 C 87.625 57.148438 87.46875 58.753906 87.292969 60.691406 L 86.972656 64.210938 L 84.886719 64.453125 C 83.738281 64.585938 82.792969 64.648438 82.785156 64.59375 Z M 107.214844 61.691406 C 107.234375 61.59375 107.460938 57.855469 107.714844 53.386719 C 107.96875 48.917969 108.214844 45.207031 108.257812 45.144531 C 108.300781 45.082031 109.351562 44.929688 110.589844 44.804688 L 112.835938 44.582031 L 112.347656 52.917969 L 111.855469 61.253906 L 109.515625 61.5625 C 107.667969 61.804688 107.183594 61.832031 107.214844 61.691406 Z M 120.246094 59.96875 C 120.296875 59.355469 120.980469 47.738281 120.972656 47.652344 C 120.964844 47.609375 119.808594 47.695312 118.402344 47.835938 L 115.84375 48.097656 L 115.949219 46.117188 L 116.058594 44.140625 L 131.386719 42.359375 L 130.929688 44.355469 C 130.683594 45.453125 130.480469 46.378906 130.484375 46.410156 C 130.488281 46.4375 129.386719 46.59375 128.039062 46.75 C 126.691406 46.90625 125.59375 47.074219 125.601562 47.121094 C 125.613281 47.222656 124.929688 58.859375 124.878906 59.429688 L 124.84375 59.8125 L 122.53125 60.082031 L 120.214844 60.351562 Z M 133.300781 58.777344 C 133.296875 58.746094 133.511719 54.992188 133.78125 50.4375 C 134.046875 45.882812 134.265625 42.128906 134.261719 42.089844 C 134.257812 42.054688 136.949219 41.714844 140.242188 41.332031 C 144.941406 40.785156 146.238281 40.671875 146.253906 40.804688 C 146.265625 40.898438 146.234375 41.804688 146.179688 42.816406 L 146.082031 44.652344 L 142.324219 45.089844 L 138.5625 45.527344 L 138.515625 46.492188 C 138.492188 47.019531 138.480469 47.550781 138.496094 47.664062 C 138.515625 47.851562 138.933594 47.828125 141.921875 47.484375 C 143.792969 47.265625 145.328125 47.105469 145.328125 47.121094 C 145.332031 47.140625 145.277344 48.027344 145.214844 49.09375 C 145.148438 50.160156 145.097656 51.050781 145.097656 51.074219 C 145.101562 51.097656 143.550781 51.292969 141.652344 51.515625 L 138.199219 51.917969 L 138.183594 52.503906 C 138.179688 52.828125 138.160156 53.355469 138.148438 53.679688 L 138.121094 54.269531 L 145.746094 53.386719 L 145.484375 55.414062 L 145.226562 57.445312 L 139.265625 58.136719 C 135.988281 58.519531 133.304688 58.804688 133.300781 58.773438 Z M 149.355469 56.828125 C 149.335938 56.660156 150.226562 41.019531 150.289062 40.464844 L 150.324219 40.136719 L 154.445312 39.714844 C 158.210938 39.332031 158.652344 39.3125 159.617188 39.484375 C 163.8125 40.21875 165.953125 43.09375 165.570312 47.46875 C 165.257812 51.015625 163.09375 53.855469 159.535156 55.386719 C 158.617188 55.777344 158.226562 55.851562 153.960938 56.398438 C 150.53125 56.839844 149.367188 56.949219 149.355469 56.828125 Z M 158.492188 51.445312 C 159.992188 50.679688 160.785156 49.457031 160.941406 47.671875 C 161.117188 45.628906 160.429688 44.300781 158.917969 43.765625 C 158.136719 43.488281 157.972656 43.484375 156.386719 43.664062 L 154.691406 43.859375 L 154.441406 47.960938 C 154.304688 50.214844 154.195312 52.113281 154.203125 52.179688 C 154.214844 52.386719 157.875 51.757812 158.492188 51.445312 Z M 158.492188 51.445312 " fill-opacity="1" fill-rule="nonzero"/><path fill="#ffffff" d="M 110.941406 85.527344 C 108.5 85.496094 106.835938 84.558594 106 82.742188 C 105.582031 81.835938 105.375 80.019531 105.550781 78.796875 C 105.886719 76.460938 107.109375 74.542969 109.042969 73.316406 C 110.085938 72.65625 110.835938 72.367188 112.113281 72.144531 C 113.953125 71.820312 115.425781 72.105469 116.636719 73.015625 C 117.914062 73.980469 118.4375 75.058594 118.578125 77.015625 C 118.679688 78.382812 118.59375 79.136719 118.207031 80.304688 C 117.511719 82.390625 115.917969 84.097656 113.894531 84.921875 C 113.148438 85.222656 111.621094 85.539062 110.941406 85.527344 Z M 113.25 81.769531 C 113.863281 81.363281 114.566406 80.417969 114.804688 79.671875 C 114.910156 79.351562 115.007812 78.753906 115.023438 78.339844 C 115.113281 76.296875 114.085938 75.089844 112.414062 75.277344 C 111.195312 75.414062 110.1875 76.128906 109.613281 77.257812 C 109.167969 78.128906 109.0625 78.675781 109.132812 79.769531 C 109.1875 80.664062 109.214844 80.761719 109.554688 81.265625 C 109.953125 81.851562 110.269531 82.074219 110.941406 82.242188 C 111.5625 82.394531 112.636719 82.175781 113.25 81.769531 Z M 165.34375 79.117188 C 164.097656 78.921875 163.578125 78.449219 162.511719 76.542969 C 161.875 75.402344 161.480469 74.921875 161.203125 74.953125 C 161.101562 74.964844 161.03125 75.566406 160.949219 77.039062 C 160.890625 78.179688 160.824219 79.21875 160.808594 79.355469 C 160.78125 79.59375 160.757812 79.601562 159.054688 79.800781 C 157.882812 79.933594 157.320312 79.964844 157.3125 79.886719 C 157.296875 79.761719 157.992188 67.628906 158.035156 67.214844 L 158.0625 66.960938 L 161.097656 66.660156 C 164.1875 66.347656 164.539062 66.347656 165.628906 66.667969 C 166.210938 66.839844 167.039062 67.476562 167.390625 68.019531 C 167.816406 68.679688 168 70.300781 167.753906 71.226562 C 167.453125 72.367188 166.472656 73.453125 165.300781 73.953125 L 164.863281 74.136719 L 165.199219 74.378906 C 165.378906 74.507812 165.691406 74.847656 165.890625 75.128906 C 166.125 75.460938 166.378906 75.683594 166.613281 75.761719 C 167.074219 75.917969 167.847656 75.832031 168.308594 75.574219 C 168.726562 75.339844 168.667969 75.246094 169.085938 76.804688 C 169.453125 78.183594 169.46875 78.140625 168.492188 78.601562 C 167.628906 79.007812 166.171875 79.25 165.34375 79.117188 Z M 163.6875 71.574219 C 164.164062 71.285156 164.382812 70.832031 164.316406 70.265625 C 164.234375 69.542969 163.421875 69.246094 161.988281 69.414062 L 161.378906 69.484375 L 161.320312 70.585938 C 161.289062 71.191406 161.246094 71.773438 161.230469 71.878906 C 161.203125 72.050781 161.296875 72.058594 162.234375 71.945312 C 163.023438 71.855469 163.367188 71.765625 163.6875 71.574219 Z M 121.570312 84.109375 C 121.566406 84.085938 121.734375 81.179688 121.941406 77.648438 C 122.152344 74.121094 122.316406 71.210938 122.316406 71.183594 C 122.3125 71.15625 124.300781 70.902344 126.738281 70.621094 C 130.3125 70.203125 131.171875 70.132812 131.183594 70.242188 C 131.199219 70.386719 131.070312 72.554688 131.019531 72.980469 C 130.992188 73.222656 130.984375 73.222656 128.335938 73.558594 L 125.679688 73.894531 L 125.554688 75.777344 L 127.996094 75.523438 L 130.433594 75.265625 L 130.351562 76.800781 L 130.269531 78.332031 L 127.824219 78.617188 L 125.382812 78.898438 L 125.265625 80.917969 C 125.203125 82.027344 125.140625 83.105469 125.121094 83.3125 L 125.09375 83.6875 L 123.335938 83.921875 C 122.367188 84.050781 121.574219 84.136719 121.570312 84.109375 Z M 133.511719 77.714844 C 133.675781 74.917969 133.847656 72 133.894531 71.230469 L 133.976562 69.832031 L 138.429688 69.289062 C 142.640625 68.773438 142.886719 68.753906 142.855469 68.933594 C 142.839844 69.039062 142.789062 69.742188 142.746094 70.496094 L 142.664062 71.871094 L 139.992188 72.179688 C 138.523438 72.351562 137.324219 72.503906 137.324219 72.515625 C 137.328125 72.53125 137.304688 72.953125 137.273438 73.457031 C 137.246094 73.960938 137.222656 74.382812 137.222656 74.398438 C 137.226562 74.414062 138.316406 74.296875 139.652344 74.144531 C 140.984375 73.988281 142.082031 73.898438 142.085938 73.945312 C 142.097656 74.039062 141.964844 76.363281 141.925781 76.738281 L 141.902344 76.980469 L 139.484375 77.261719 C 137.273438 77.519531 137.066406 77.558594 137.035156 77.734375 C 137.015625 77.839844 136.957031 78.796875 136.898438 79.859375 C 136.84375 80.925781 136.785156 81.929688 136.769531 82.09375 L 136.746094 82.390625 L 134.980469 82.59375 L 133.214844 82.800781 Z M 144.875 81.402344 C 144.875 81.378906 145.039062 78.472656 145.25 74.945312 C 145.457031 71.414062 145.625 68.503906 145.621094 68.476562 C 145.617188 68.449219 147.703125 68.183594 150.253906 67.890625 C 153.894531 67.464844 154.898438 67.378906 154.910156 67.480469 C 154.921875 67.554688 154.894531 68.253906 154.855469 69.039062 L 154.777344 70.464844 L 151.867188 70.800781 L 148.953125 71.140625 L 148.917969 71.886719 C 148.898438 72.296875 148.890625 72.707031 148.898438 72.796875 C 148.917969 72.941406 149.238281 72.921875 151.554688 72.652344 C 153.003906 72.484375 154.191406 72.359375 154.195312 72.375 C 154.195312 72.390625 154.15625 73.078125 154.105469 73.902344 C 154.054688 74.726562 154.015625 75.417969 154.015625 75.4375 C 154.019531 75.453125 152.816406 75.605469 151.34375 75.777344 L 148.671875 76.089844 L 148.660156 76.542969 C 148.65625 76.792969 148.640625 77.203125 148.632812 77.457031 L 148.613281 77.914062 L 151.5625 77.570312 L 154.515625 77.226562 L 154.316406 78.800781 L 154.113281 80.371094 L 149.496094 80.910156 C 146.957031 81.203125 144.878906 81.425781 144.875 81.402344 Z M 144.875 81.402344 " fill-opacity="1" fill-rule="nonzero"/><path fill="#f93646" d="M 187.4375 9.152344 C 185.535156 9.167969 183.609375 9.480469 181.726562 10.097656 C 179.921875 10.691406 177.652344 11.945312 176.058594 13.234375 C 175.136719 13.976562 173.652344 15.523438 172.914062 16.507812 C 167.574219 23.660156 168.199219 33.667969 174.378906 40.042969 C 175.980469 41.699219 177.375 42.738281 179.3125 43.722656 C 182.710938 45.449219 186.308594 46.050781 190.132812 45.53125 C 193.148438 45.117188 196.0625 43.917969 198.542969 42.070312 C 199.429688 41.410156 201.089844 39.800781 201.820312 38.898438 C 204.039062 36.15625 205.429688 32.738281 205.785156 29.15625 C 206.230469 24.683594 204.929688 20.085938 202.195312 16.445312 C 201.496094 15.511719 199.992188 13.953125 199.101562 13.234375 C 195.738281 10.519531 191.632812 9.121094 187.4375 9.152344 Z M 187.4375 9.152344 " fill-opacity="1" fill-rule="nonzero"/><g clip-path="url(#4a669711a5)"><path fill="#241c00" d="M 186.027344 48.371094 C 185.851562 48.351562 185.359375 48.289062 184.929688 48.238281 C 179.667969 47.589844 174.671875 44.785156 171.308594 40.582031 C 169.503906 38.324219 168.066406 35.421875 167.378906 32.652344 C 166.9375 30.863281 166.78125 29.53125 166.78125 27.566406 C 166.78125 24.324219 167.472656 21.316406 168.878906 18.453125 C 172.074219 11.953125 178.269531 7.644531 185.546875 6.871094 L 186.117188 6.808594 L 186.117188 4.550781 L 184.988281 4.550781 C 183.972656 4.550781 183.835938 4.53125 183.5625 4.347656 C 182.707031 3.761719 182.722656 2.605469 183.59375 1.960938 C 183.84375 1.773438 183.9375 1.769531 187.578125 1.769531 C 191.214844 1.769531 191.308594 1.773438 191.558594 1.960938 C 192.429688 2.605469 192.445312 3.761719 191.589844 4.347656 C 191.316406 4.53125 191.179688 4.550781 190.164062 4.550781 L 189.035156 4.550781 L 189.035156 6.8125 L 189.652344 6.875 C 192.203125 7.128906 194.734375 7.882812 197.082031 9.082031 C 201.898438 11.542969 205.613281 15.875 207.320312 21.007812 C 208.464844 24.453125 208.695312 28.335938 207.960938 31.871094 C 206.496094 38.914062 201.316406 44.828125 194.507812 47.214844 C 193.234375 47.664062 191.867188 48.007812 190.585938 48.199219 C 189.664062 48.335938 186.683594 48.449219 186.027344 48.371094 Z M 190.085938 45.359375 C 193.042969 44.957031 195.90625 43.777344 198.339844 41.960938 C 199.210938 41.3125 200.839844 39.734375 201.558594 38.847656 C 203.738281 36.15625 205.101562 32.800781 205.453125 29.285156 C 205.886719 24.894531 204.613281 20.378906 201.925781 16.804688 C 201.238281 15.886719 199.761719 14.355469 198.890625 13.648438 C 194.082031 9.773438 187.742188 8.628906 181.828125 10.570312 C 180.058594 11.152344 177.832031 12.386719 176.261719 13.648438 C 175.359375 14.378906 173.902344 15.898438 173.179688 16.867188 C 167.933594 23.886719 168.546875 33.710938 174.613281 39.972656 C 176.1875 41.597656 177.558594 42.617188 179.457031 43.585938 C 182.796875 45.28125 186.328125 45.871094 190.085938 45.359375 Z M 186.9375 31.859375 C 186.8125 31.835938 186.460938 31.730469 186.152344 31.625 C 183.726562 30.796875 182.589844 27.960938 183.753906 25.632812 C 184.550781 24.039062 186.492188 23.050781 188.246094 23.347656 C 188.757812 23.433594 188.894531 23.429688 188.988281 23.328125 C 189.050781 23.261719 190.171875 21.828125 191.476562 20.140625 C 193.203125 17.914062 193.933594 17.042969 194.136719 16.960938 C 194.570312 16.78125 195.371094 16.878906 195.65625 17.148438 C 196.011719 17.476562 196.148438 17.808594 196.148438 18.316406 C 196.148438 18.839844 196.304688 18.617188 193.148438 22.660156 C 192.035156 24.082031 191.238281 25.179688 191.261719 25.257812 C 191.285156 25.332031 191.417969 25.660156 191.558594 25.988281 C 191.789062 26.519531 191.8125 26.683594 191.8125 27.582031 C 191.808594 28.40625 191.773438 28.679688 191.601562 29.109375 C 191.144531 30.265625 190.195312 31.203125 189.0625 31.613281 C 188.484375 31.824219 187.40625 31.949219 186.9375 31.859375 Z M 188.308594 28.792969 C 188.8125 28.449219 188.992188 28.132812 188.984375 27.585938 C 188.972656 26.148438 187.234375 25.652344 186.359375 26.832031 C 186.09375 27.1875 186.09375 27.976562 186.351562 28.328125 C 186.675781 28.765625 187.101562 28.996094 187.578125 28.996094 C 187.871094 28.996094 188.101562 28.933594 188.308594 28.792969 Z M 169.28125 11.375 C 168.515625 11.214844 168.019531 10.378906 168.234375 9.617188 C 168.496094 8.710938 172.320312 5.585938 174.683594 4.347656 C 175.652344 3.839844 176.292969 3.898438 176.839844 4.546875 C 177.191406 4.964844 177.242188 5.46875 176.980469 5.992188 C 176.863281 6.226562 176.636719 6.503906 176.480469 6.605469 C 176.320312 6.707031 175.75 7.054688 175.214844 7.378906 C 173.871094 8.199219 172.574219 9.191406 171.359375 10.332031 C 170.773438 10.886719 170.222656 11.324219 170.082031 11.355469 C 169.945312 11.382812 169.792969 11.417969 169.746094 11.429688 C 169.695312 11.441406 169.484375 11.417969 169.28125 11.375 Z M 205.410156 11.433594 C 205.359375 11.417969 205.203125 11.382812 205.066406 11.355469 C 204.925781 11.324219 204.394531 10.898438 203.816406 10.351562 C 202.582031 9.183594 201.074219 8.039062 199.753906 7.253906 C 198.394531 6.449219 198.34375 6.410156 198.140625 5.949219 C 197.722656 5.007812 198.398438 4.003906 199.453125 4.003906 C 200.339844 4.003906 203.304688 5.980469 205.660156 8.136719 C 206.863281 9.238281 206.976562 9.433594 206.925781 10.324219 C 206.90625 10.699219 206.320312 11.277344 205.863281 11.375 C 205.664062 11.417969 205.457031 11.445312 205.410156 11.433594 Z M 205.410156 11.433594 " fill-opacity="1" fill-rule="nonzero"/></g><path fill="#f93646" d="M 79.292969 28.574219 L 157.035156 21.375 L 157.25 23.679688 L 79.503906 30.882812 Z M 79.292969 28.574219 " fill-opacity="1" fill-rule="nonzero"/><path fill="#241c00" d="M 50.847656 22.84375 L 99.847656 18.304688 L 100.101562 21.035156 L 51.101562 25.574219 Z M 50.847656 22.84375 " fill-opacity="1" fill-rule="nonzero"/><g clip-path="url(#1d7e831188)"><path fill="#f93646" d="M 16.203125 54.59375 L 53.039062 51.183594 L 53.253906 53.496094 L 16.417969 56.910156 Z M 16.203125 54.59375 " fill-opacity="1" fill-rule="nonzero"/></g><path fill="#241c00" d="M 102.308594 99.492188 L 165.140625 93.671875 L 165.390625 96.394531 L 102.5625 102.210938 Z M 102.308594 99.492188 " fill-opacity="1" fill-rule="nonzero"/><g clip-path="url(#5e6406141d)"><path fill="#f93646" d="M 84.871094 107.628906 L 131.578125 103.300781 L 131.820312 105.894531 L 85.113281 110.222656 Z M 84.871094 107.628906 " fill-opacity="1" fill-rule="nonzero"/></g><path fill="#f93646" d="M 43.125 85.878906 L 95.78125 81.003906 L 95.953125 82.863281 L 43.296875 87.742188 Z M 43.125 85.878906 " fill-opacity="1" fill-rule="nonzero"/><path fill="#f93646" d="M 168.605469 56.601562 L 205.832031 53.152344 C 205.949219 53.140625 206.050781 53.175781 206.140625 53.25 C 206.230469 53.324219 206.28125 53.417969 206.292969 53.535156 L 206.414062 54.847656 C 206.425781 54.964844 206.394531 55.066406 206.320312 55.15625 C 206.242188 55.246094 206.148438 55.296875 206.03125 55.308594 L 168.804688 58.757812 C 168.6875 58.765625 168.585938 58.734375 168.496094 58.660156 C 168.40625 58.585938 168.355469 58.492188 168.34375 58.375 L 168.222656 57.058594 C 168.210938 56.945312 168.246094 56.839844 168.320312 56.753906 C 168.394531 56.664062 168.488281 56.613281 168.605469 56.601562 Z M 168.605469 56.601562 " fill-opacity="1" fill-rule="nonzero"/></svg>